<svg width="14" height="14" viewBox="0 0 14 14" fill="none" xmlns="http://www.w3.org/2000/svg">
<path fill-rule="evenodd" clip-rule="evenodd" d="M0.779395 8.40019L11.4894 8.40019L8.07804 11.6518C7.76501 11.9489 7.75223 12.4472 8.05248 12.757C8.34954 13.07 8.84783 13.0828 9.15766 12.7826L13.6167 8.53435L13.6231 8.53115C13.8658 8.2884 14 7.96259 14 7.61763C14 7.27266 13.8627 6.94366 13.6135 6.69451L9.15766 2.45268C9.01073 2.31213 8.81908 2.23548 8.61785 2.23548C8.40384 2.23548 8.19942 2.32491 8.05248 2.47823C7.90875 2.62836 7.83209 2.82959 7.83528 3.03721C7.83848 3.24483 7.92791 3.43967 8.07804 3.5866L11.5054 6.83506L0.782589 6.83506C0.351378 6.83506 2.19345e-05 7.18641 2.19345e-05 7.61763C-0.00317192 8.04884 0.348184 8.40019 0.779395 8.40019Z" fill="#030910"/>
</svg>
